<svg width="306" height="131" viewBox="0 0 306 131" fill="none" xmlns="http://www.w3.org/2000/svg">
<g clip-path="url(#clip0_106_1341)">
<path d="M6.61482 74.5426V5.48169H57.171C60.2207 5.48169 61.1656 6.25863 61.1656 8.71892V74.5426H44.4568V17.2221H42.2661V74.5426H25.5143V17.2221H23.3237V74.5426H6.61482Z" fill="black"/>
<path d="M80.0651 74.5426H63.3563V5.48169H80.0651V74.5426Z" fill="black"/>
<path d="M101.155 62.8023V40.0985H117.263V71.3054C117.263 73.7657 116.275 74.5426 113.268 74.5426H86.2504C83.2007 74.5426 82.2558 73.7657 82.2558 71.3054V8.71892C82.2558 6.25863 83.2437 5.48169 86.2504 5.48169H113.268C116.318 5.48169 117.263 6.25863 117.263 8.71892V38.3288H101.155V17.2221H98.9646V62.8023H101.155Z" fill="black"/>
<path d="M119.453 74.5426V5.48169H151.11C154.16 5.48169 155.105 6.25863 155.105 8.71892V37.2497C155.105 39.71 154.117 40.487 151.454 40.487H150.852V41.7819H151.454C154.117 41.7819 155.105 42.5588 155.105 45.0191V74.5426H138.396V46.7888H136.162V74.5426H119.453ZM136.162 35.0916H138.353V17.2221H136.162V35.0916Z" fill="black"/>
<path d="M192.904 71.3054C192.904 73.7657 191.916 74.5426 188.909 74.5426H161.29C158.24 74.5426 157.295 73.7657 157.295 71.3054V8.71892C157.295 6.25863 158.283 5.48169 161.29 5.48169H188.909C191.959 5.48169 192.904 6.25863 192.904 8.71892V71.3054ZM176.195 62.8023V17.2221H174.004V62.8023H176.195Z" fill="black"/>
<path d="M226.364 74.5426H209.613V17.2221H204.759V5.48169H231.175V17.2221H226.364V74.5426Z" fill="black"/>
<path d="M268.158 70.0105C268.158 73.4636 266.826 74.5426 262.574 74.5426H232.507V5.48169H262.574C266.826 5.48169 268.158 6.56077 268.158 10.0138V70.0105ZM249.259 62.8023H251.449V17.2221H249.259V62.8023Z" fill="black"/>
<path d="M270.349 74.5426V5.48169H287.058V33.2356H289.248V5.48169H305.957V74.5858H289.248V44.9759H287.058V74.5858H270.349V74.5426Z" fill="black"/>
<path d="M0.51544 69.6221V0.517944H51.0716C54.1213 0.517944 55.0663 1.29488 55.0663 3.75518V69.5789H38.3574V12.2583H36.1668V69.5789H19.4579V12.2583H17.2673V69.5789H0.51544V69.6221Z" fill="#6EC2FF"/>
<path d="M74.0087 69.6221H57.2998V0.517944H74.0087V69.6221Z" fill="#6EC2FF"/>
<path d="M95.0559 57.8817V35.1779H111.163V66.3848C111.163 68.8451 110.175 69.6221 107.169 69.6221H80.151C77.1013 69.6221 76.1564 68.8451 76.1564 66.3848V3.79833C76.1564 1.33803 77.1443 0.561096 80.151 0.561096H107.169C110.218 0.561096 111.163 1.33803 111.163 3.79833V33.4082H95.0559V12.2583H92.8652V57.8385H95.0559V57.8817Z" fill="#6EC2FF"/>
<path d="M113.397 69.6221V0.517944H145.054C148.103 0.517944 149.048 1.29488 149.048 3.75518V32.286C149.048 34.7463 148.06 35.5232 145.397 35.5232H144.753V36.8181H145.354C148.017 36.8181 149.005 37.595 149.005 40.0553V69.5789H132.296V41.8682H130.106V69.6221H113.397ZM130.106 30.1278H132.296V12.2583H130.106V30.1278Z" fill="#6EC2FF"/>
<path d="M186.847 66.3417C186.847 68.802 185.859 69.5789 182.853 69.5789H155.234C152.184 69.5789 151.239 68.802 151.239 66.3417V3.79833C151.239 1.33803 152.227 0.561096 155.234 0.561096H182.853C185.902 0.561096 186.847 1.33803 186.847 3.79833V66.3417ZM170.095 57.8817V12.2583H167.905V57.8385H170.095V57.8817Z" fill="#6EC2FF"/>
<path d="M220.265 69.6221H203.556V12.2583H198.702V0.517944H225.119V12.2583H220.265V69.6221Z" fill="#6EC2FF"/>
<path d="M262.102 65.0899C262.102 68.543 260.77 69.6221 256.518 69.6221H226.45V0.517944H256.518C260.77 0.517944 262.102 1.59702 262.102 5.05007V65.0899ZM243.202 57.8817H245.393V12.2583H243.202V57.8817Z" fill="#6EC2FF"/>
<path d="M264.292 69.6221V0.517944H281.001V28.2718H283.192V0.517944H299.901V69.6221H283.192V40.0122H281.001V69.6221H264.292Z" fill="#6EC2FF"/>
<path d="M0.429535 69.5358V0.431641H50.9857C54.0354 0.431641 54.9803 1.20858 54.9803 3.66887V69.4926H38.2285V12.172H36.0809V69.4926H19.329V12.172H17.1384V69.4926H0.429535V69.5358Z" stroke="black" stroke-width="2" stroke-miterlimit="10"/>
<path d="M73.8798 69.5358H57.171V0.431641H73.8798V69.5358Z" stroke="black" stroke-width="2" stroke-miterlimit="10"/>
<path d="M94.97 57.7522V35.0916H111.077V66.2985C111.077 68.7588 110.09 69.5358 107.083 69.5358H80.0651C77.0154 69.5358 76.0705 68.7588 76.0705 66.2985V3.66887C76.0705 1.20858 77.0584 0.431641 80.0651 0.431641H107.083C110.133 0.431641 111.077 1.20858 111.077 3.66887V33.2788H94.97V12.172H92.7793V57.7522H94.97V57.7522Z" stroke="black" stroke-width="2" stroke-miterlimit="10"/>
<path d="M113.268 69.5358V0.431641H144.925C147.974 0.431641 148.919 1.20858 148.919 3.66887V32.1997C148.919 34.66 147.932 35.4369 145.268 35.4369H144.667V36.7318H145.268C147.932 36.7318 148.919 37.5087 148.919 39.969V69.4926H132.211V41.7819H130.02V69.5358H113.268ZM130.02 30.0415H132.211V12.172H130.02V30.0415Z" stroke="black" stroke-width="2" stroke-miterlimit="10"/>
<path d="M186.718 66.2554C186.718 68.7157 185.73 69.4926 182.724 69.4926H155.105C152.055 69.4926 151.11 68.7157 151.11 66.2554V3.66887C151.11 1.20858 152.098 0.431641 155.105 0.431641H182.724C185.773 0.431641 186.718 1.20858 186.718 3.66887V66.2554ZM170.01 57.7522V12.172H167.819V57.7522H170.01V57.7522Z" stroke="black" stroke-width="2" stroke-miterlimit="10"/>
<path d="M220.179 69.5358H203.47V12.172H198.617V0.431641H225.033V12.172H220.179V69.5358V69.5358Z" stroke="black" stroke-width="2" stroke-miterlimit="10"/>
<path d="M262.016 64.9605C262.016 68.4135 260.684 69.4926 256.432 69.4926H226.364V0.431641H256.432C260.684 0.431641 262.016 1.51072 262.016 4.96377V64.9605ZM243.073 57.7522H245.264V12.172H243.073V57.7522Z" stroke="black" stroke-width="2" stroke-miterlimit="10"/>
<path d="M264.163 69.5358V0.431641H280.915V28.1855H283.106V0.431641H299.815V69.5358H283.106V39.9259H280.915V69.5358H264.163Z" stroke="black" stroke-width="2" stroke-miterlimit="10"/>
<path d="M8.89135 109.246L8.76249 102.34H7.68866L7.5598 109.246H2.44834L4.16648 77.6504H12.3276L14.0028 109.246H8.89135ZM7.81752 98.3255H8.67659L8.41887 86.283L8.37591 82.5278H8.07524L8.03229 86.283L7.81752 98.3255Z" fill="black"/>
<path d="M25.8579 109.246H20.5747L19.5867 94.8725H19.2861V109.246H14.3464V77.6504H19.2861V91.3331H19.5438L20.6176 77.6504H25.6861L24.011 92.7143L25.8579 109.246Z" fill="black"/>
<path d="M31.8714 109.246L31.7426 102.34H30.6687L30.5399 109.246H25.4284L27.1465 77.6504H35.3077L36.9829 109.246H31.8714ZM30.7976 98.3255H31.6567L31.3989 86.283L31.356 82.5278H31.0553L31.0123 86.283L30.7976 98.3255Z" fill="black"/>
<path d="M43.4259 99.7931H42.2661V109.246H37.3265V77.6504H43.4259C44.9292 77.6504 46.089 78.082 46.9481 78.9453C47.8071 79.8085 48.2367 81.0603 48.2367 82.6573V94.5703C48.2367 96.1674 47.8071 97.4623 46.9481 98.3687C46.046 99.3183 44.8863 99.7931 43.4259 99.7931ZM42.438 95.5199C42.8675 95.5199 43.0823 95.2178 43.0823 94.5703V82.8731C43.0823 82.2257 42.8675 81.9235 42.438 81.9235H42.2661V95.5199H42.438Z" fill="black"/>
<path d="M53.6917 104.973H57.2569V109.246H48.7521V77.6504H57.2139V81.9235H53.6917V90.9015H57.0851V94.9588H53.6917V104.973Z" fill="black"/>
<path d="M62.9267 104.973H65.8476V109.246H57.9871V77.6504H62.9267V104.973Z" fill="black"/>
<path d="M71.2597 104.973H74.1805V109.246H66.32V77.6504H71.2597V104.973Z" fill="black"/>
<path d="M80.4517 109.246L80.3228 102.34H79.249L79.1201 109.246H74.0087L75.7268 77.6504H83.888L85.5632 109.246H80.4517ZM79.3779 98.3255H80.2369L79.9792 86.283L79.9363 82.5278H79.6356L79.5926 86.283L79.3779 98.3255Z" fill="black"/>
<path d="M91.7485 77.6504H96.731V109.246H91.7485V95.1314H90.8464V109.246H85.9068V77.6504H90.8464V90.9015H91.7485V77.6504Z" fill="black"/>
<path d="M116.919 94.7861L116.404 86.1103V77.6935H121V109.289H116.318L114.385 91.5489H114.127L114.557 100.743V109.289H109.961V77.6935H114.686L116.533 94.7861H116.919Z" fill="black"/>
<path d="M126.97 104.973H130.535V109.246H122.031V77.6504H130.492V81.9235H126.97V90.9015H130.364V94.9588H126.97V104.973Z" fill="black"/>
<path d="M142.047 77.6504V104.843C142.047 106.354 141.574 107.519 140.629 108.296C139.684 109.073 138.31 109.462 136.592 109.462C133.027 109.462 131.266 107.908 131.266 104.843V77.6504H136.205V104.843C136.205 105.232 136.334 105.447 136.635 105.447C136.935 105.447 137.107 105.232 137.107 104.843V77.6504H142.047Z" fill="black"/>
<path d="M152.012 77.6504V81.8804H149.778V109.203H144.839V81.8804H142.562V77.6936L152.012 77.6504Z" fill="black"/>
<path d="M163.695 109.246H158.584L158.068 97.5917H157.51V109.246H152.57V77.6504H158.541C160.13 77.6504 161.376 78.0389 162.192 78.8158C163.008 79.5927 163.395 80.715 163.395 82.1825V92.2395C163.395 93.4912 163.094 94.484 162.493 95.2178L163.695 109.246ZM157.51 93.7502H157.682C158.111 93.7502 158.326 93.3618 158.326 92.5417V82.9595C158.326 82.312 158.111 81.9667 157.682 81.9667H157.51V93.7502Z" fill="black"/>
<path d="M169.58 77.4346C171.427 77.4346 172.802 77.9094 173.704 78.8158C174.606 79.7222 175.078 81.1898 175.078 83.1753V103.678C175.078 105.663 174.606 107.131 173.704 108.08C172.802 108.987 171.384 109.462 169.537 109.462C165.886 109.462 164.082 107.519 164.082 103.678V83.1753C164.082 79.3769 165.886 77.4346 169.58 77.4346ZM170.01 104.886V82.0099C170.01 81.6214 169.881 81.4487 169.58 81.4487C169.279 81.4487 169.15 81.6214 169.15 82.0099V104.886C169.15 105.275 169.279 105.447 169.58 105.447C169.838 105.491 170.01 105.275 170.01 104.886Z" fill="black"/>
<path d="M190.627 89.1318H185.73V81.9667C185.73 81.5782 185.602 81.4056 185.344 81.4056C185.043 81.4056 184.914 81.5782 184.914 81.9667V88.8728C184.914 89.5202 185.129 89.995 185.602 90.2972L187.749 90.9878C188.78 91.3331 189.553 91.851 190.069 92.4985C190.584 93.1459 190.842 94.1387 190.842 95.4336V104.455C190.842 106.052 190.369 107.303 189.382 108.167C188.437 109.03 187.062 109.505 185.344 109.505C181.736 109.505 179.932 108.037 179.975 105.145V96.34H184.871V104.886C184.871 105.275 185 105.447 185.301 105.447C185.602 105.447 185.73 105.275 185.73 104.929V96.4695C185.73 95.8221 185.473 95.3473 184.914 95.0451L183.239 94.5272C181.994 94.225 181.134 93.6639 180.576 92.9301C180.061 92.1532 179.76 91.0741 179.76 89.6497V82.2688C179.76 80.715 180.232 79.5496 181.177 78.6863C182.122 77.823 183.497 77.4346 185.258 77.4346C186.933 77.4346 188.265 77.823 189.167 78.5568C190.069 79.2906 190.541 80.3697 190.541 81.794V89.1318H190.627Z" fill="black"/>
<path d="M197.457 77.6504H202.439V109.246H197.457V95.1314H196.555V109.246H191.615V77.6504H196.555V90.9015H197.457V77.6504Z" fill="black"/>
<path d="M208.796 77.4346C210.643 77.4346 212.018 77.9094 212.92 78.8158C213.822 79.7222 214.294 81.1898 214.294 83.1753V103.678C214.294 105.663 213.822 107.131 212.92 108.08C212.018 108.987 210.6 109.462 208.754 109.462C205.102 109.462 203.298 107.519 203.298 103.678V83.1753C203.298 79.3769 205.102 77.4346 208.796 77.4346ZM209.183 104.886V82.0099C209.183 81.6214 209.054 81.4487 208.754 81.4487C208.453 81.4487 208.324 81.6214 208.324 82.0099V104.886C208.324 105.275 208.453 105.447 208.754 105.447C209.054 105.491 209.183 105.275 209.183 104.886Z" fill="black"/>
<path d="M226.278 109.246H221.167L220.652 97.5917H220.093V109.246H215.154V77.6504H221.124C222.713 77.6504 223.959 78.0389 224.775 78.8158C225.591 79.5927 225.978 80.715 225.978 82.1825V92.2395C225.978 93.4912 225.677 94.484 225.076 95.2178L226.278 109.246ZM220.093 93.7502H220.265C220.695 93.7502 220.909 93.3618 220.909 92.5417V82.9595C220.909 82.312 220.695 81.9667 220.265 81.9667H220.093V93.7502Z" fill="black"/>
<path d="M235.771 77.6504V81.8804H233.538V109.203H228.598V81.8804H226.321V77.6936L235.771 77.6504Z" fill="black"/>
<path d="M241.828 91.7647L241.871 88.139L242.3 77.6504H247.583L244.104 102.167V109.246H239.122V102.21L235.599 77.6504H240.969L241.484 88.139L241.527 91.7647H241.828Z" fill="black"/>
<path d="M265.967 109.246L265.839 102.34H264.765L264.636 109.246H259.524L261.243 77.6504H269.404L271.079 109.246H265.967ZM264.894 98.3255H265.753L265.495 86.283L265.452 82.5278H265.151L265.108 86.283L264.894 98.3255Z" fill="black"/>
<path d="M277.307 77.6504C278.853 77.6504 280.099 78.082 280.958 78.9021C281.86 79.7222 282.29 80.974 282.29 82.6573V104.368C282.29 105.965 281.86 107.174 280.958 107.994C280.056 108.814 278.853 109.246 277.307 109.246H271.465V77.6504H277.307ZM277.264 104.412V82.5278C277.264 82.1394 277.092 81.9667 276.792 81.9667H276.405V105.016H276.749C277.092 104.973 277.264 104.8 277.264 104.412Z" fill="black"/>
<path d="M293.758 89.1318H288.862V81.9667C288.862 81.5782 288.733 81.4056 288.475 81.4056C288.174 81.4056 288.045 81.5782 288.045 81.9667V88.8728C288.045 89.5202 288.26 89.995 288.733 90.2972L290.88 90.9878C291.911 91.3331 292.684 91.851 293.2 92.4985C293.715 93.1459 293.973 94.1387 293.973 95.4336V104.455C293.973 106.052 293.501 107.303 292.513 108.167C291.568 109.03 290.193 109.505 288.475 109.505C284.867 109.505 283.063 108.037 283.106 105.145V96.34H288.003V104.886C288.003 105.275 288.131 105.447 288.432 105.447C288.733 105.447 288.862 105.275 288.862 104.929V96.4695C288.862 95.8221 288.604 95.3473 288.045 95.0451L286.37 94.5272C285.125 94.225 284.266 93.6639 283.707 92.9301C283.192 92.1532 282.891 91.0741 282.891 89.6497V82.2688C282.891 80.715 283.364 79.5496 284.309 78.6863C285.254 77.823 286.628 77.4346 288.389 77.4346C290.064 77.4346 291.396 77.823 292.298 78.5568C293.2 79.2906 293.672 80.3697 293.672 81.794V89.1318H293.758Z" fill="black"/>
<path d="M300.115 77.4346C301.962 77.4346 303.337 77.9094 304.239 78.8158C305.141 79.7222 305.613 81.1898 305.613 83.1753V103.678C305.613 105.663 305.141 107.131 304.239 108.08C303.337 108.987 301.919 109.462 300.072 109.462C296.421 109.462 294.617 107.519 294.617 103.678V83.1753C294.617 79.3769 296.464 77.4346 300.115 77.4346ZM300.545 104.886V82.0099C300.545 81.6214 300.416 81.4487 300.115 81.4487C299.815 81.4487 299.686 81.6214 299.686 82.0099V104.886C299.686 105.275 299.815 105.447 300.115 105.447C300.416 105.491 300.545 105.275 300.545 104.886Z" fill="black"/>
<path d="M6.65778 105.447L6.52892 98.5413H5.45508L5.32622 105.447H0.257721L1.97586 73.8521H10.137L11.8122 105.447H6.65778ZM5.58394 94.484H6.44301L6.18529 82.4415L6.14234 78.6863H5.84166L5.79871 82.4415L5.58394 94.484Z" fill="#6EC2FF" stroke="black" stroke-miterlimit="10"/>
<path d="M23.6673 105.447H18.3411L17.3532 91.0741H17.0525V105.447H12.1129V73.8521H17.0525V87.5348H17.3102L18.3841 73.8521H23.4526L21.7774 88.916L23.6673 105.447Z" fill="#6EC2FF" stroke="black" stroke-miterlimit="10"/>
<path d="M29.6378 105.447L29.509 98.5413H28.4351L28.3063 105.447H23.2378L24.9559 73.8521H33.1171L34.7922 105.447H29.6378ZM28.564 94.484H29.4231L29.1654 82.4415L29.1224 78.6863H28.8217L28.7788 82.4415L28.564 94.484Z" fill="#6EC2FF" stroke="black" stroke-miterlimit="10"/>
<path d="M41.1923 95.9947H40.0326V105.447H35.1359V73.8521H41.2353C42.7386 73.8521 43.8984 74.2837 44.7574 75.1469C45.6165 76.0102 46.046 77.2619 46.046 78.859V90.772C46.046 92.369 45.6165 93.6639 44.7574 94.5703C43.8554 95.5199 42.6957 95.9947 41.1923 95.9947ZM40.2044 91.7216C40.6339 91.7216 40.8487 91.4194 40.8487 90.772V79.0748C40.8487 78.4273 40.6339 78.1252 40.2044 78.1252H40.0326V91.7216H40.2044Z" fill="#6EC2FF" stroke="black" stroke-miterlimit="10"/>
<path d="M51.4582 101.174H55.0233V105.447H46.5185V73.8521H54.9803V78.1252H51.4582V87.1031H54.8515V91.1604H51.4582V101.174Z" fill="#6EC2FF" stroke="black" stroke-miterlimit="10"/>
<path d="M60.7361 101.174H63.6569V105.447H55.7965V73.8521H60.7361V101.174Z" fill="#6EC2FF" stroke="black" stroke-miterlimit="10"/>
<path d="M69.0691 101.174H71.9899V105.447H64.1294V73.8521H69.0691V101.174Z" fill="#6EC2FF" stroke="black" stroke-miterlimit="10"/>
<path d="M78.2181 105.447L78.0893 98.5413H77.0154L76.8866 105.447H71.7751L73.4933 73.8521H81.6544L83.3296 105.447H78.2181ZM77.1443 94.484H78.0034L77.7456 82.4415L77.7027 78.6863H77.402L77.3591 82.4415L77.1443 94.484Z" fill="#6EC2FF" stroke="black" stroke-miterlimit="10"/>
<path d="M89.5578 73.8521H94.5404V105.447H89.5578V91.3331H88.6558V105.447H83.7162V73.8521H88.6558V87.1031H89.5578V73.8521Z" fill="#6EC2FF" stroke="black" stroke-miterlimit="10"/>
<path d="M114.729 90.9446L114.213 82.2689V73.8521H118.809V105.447H114.127L112.194 87.7074H111.937L112.366 96.9011V105.447H107.77V73.8521H112.495L114.342 90.9446H114.729Z" fill="#6EC2FF" stroke="black" stroke-miterlimit="10"/>
<path d="M124.78 101.174H128.345V105.447H119.84V73.8521H128.302V78.1252H124.78V87.1031H128.173V91.1604H124.78V101.174Z" fill="#6EC2FF" stroke="black" stroke-miterlimit="10"/>
<path d="M139.813 73.8521V101.045C139.813 102.556 139.341 103.721 138.396 104.498C137.451 105.275 136.076 105.663 134.358 105.663C130.793 105.663 129.032 104.109 129.032 101.045V73.8521H133.972V101.045C133.972 101.433 134.1 101.649 134.401 101.649C134.702 101.649 134.874 101.433 134.874 101.045V73.8521H139.813Z" fill="#6EC2FF" stroke="black" stroke-miterlimit="10"/>
<path d="M149.821 73.8521V78.082H147.588V105.404H142.605V78.1252H140.329V73.8952L149.821 73.8521Z" fill="#6EC2FF" stroke="black" stroke-miterlimit="10"/>
<path d="M161.505 105.447H156.393L155.878 93.7934H155.319V105.447H150.38V73.8521H156.35C157.94 73.8521 159.185 74.2405 160.001 75.0175C160.818 75.7944 161.204 76.9166 161.204 78.3842V88.4412C161.204 89.6929 160.903 90.6857 160.302 91.4194L161.505 105.447ZM155.319 89.9087H155.491C155.921 89.9087 156.136 89.5203 156.136 88.7002V79.1179C156.136 78.4705 155.921 78.1252 155.491 78.1252H155.319V89.9087Z" fill="#6EC2FF" stroke="black" stroke-miterlimit="10"/>
<path d="M167.346 73.6362C169.193 73.6362 170.568 74.111 171.47 75.0174C172.372 75.9239 172.844 77.3914 172.844 79.3769V99.8794C172.844 101.865 172.372 103.332 171.47 104.282C170.568 105.188 169.15 105.663 167.303 105.663C163.652 105.663 161.848 103.721 161.848 99.8794V79.3769C161.848 75.5354 163.695 73.6362 167.346 73.6362ZM167.776 101.088V78.2115C167.776 77.823 167.647 77.6504 167.346 77.6504C167.046 77.6504 166.917 77.823 166.917 78.2115V101.088C166.917 101.476 167.046 101.649 167.346 101.649C167.647 101.649 167.776 101.476 167.776 101.088Z" fill="#6EC2FF" stroke="black" stroke-miterlimit="10"/>
<path d="M188.394 85.2903H183.497V78.1252C183.497 77.7367 183.368 77.5641 183.11 77.5641C182.81 77.5641 182.681 77.7367 182.681 78.1252V85.0313C182.681 85.6787 182.896 86.1535 183.368 86.4557L185.516 87.1463C186.547 87.4916 187.32 88.0095 187.835 88.657C188.351 89.3044 188.608 90.2972 188.608 91.5921V100.613C188.608 102.21 188.136 103.462 187.148 104.325C186.203 105.188 184.828 105.663 183.11 105.663C179.502 105.663 177.698 104.196 177.741 101.304V92.4985H182.638V101.088C182.638 101.476 182.767 101.649 183.067 101.649C183.368 101.649 183.497 101.476 183.497 101.131V92.6712C183.497 92.0237 183.239 91.5489 182.681 91.2468L181.006 90.7288C179.76 90.4267 178.901 89.8656 178.343 89.1318C177.827 88.3548 177.526 87.2758 177.526 85.8514V78.4705C177.526 76.9166 177.999 75.7512 178.944 74.888C179.889 74.0247 181.263 73.6362 183.024 73.6362C184.7 73.6362 186.031 74.0247 186.933 74.7585C187.835 75.4922 188.308 76.5713 188.308 77.9957V85.2903H188.394Z" fill="#6EC2FF" stroke="black" stroke-miterlimit="10"/>
<path d="M195.266 73.8521H200.249V105.447H195.266V91.3331H194.364V105.447H189.424V73.8521H194.364V87.1031H195.266V73.8521Z" fill="#6EC2FF" stroke="black" stroke-miterlimit="10"/>
<path d="M206.563 73.6362C208.41 73.6362 209.784 74.111 210.686 75.0174C211.588 75.9239 212.061 77.3914 212.061 79.3769V99.8794C212.061 101.865 211.588 103.332 210.686 104.282C209.784 105.188 208.367 105.663 206.52 105.663C202.869 105.663 201.065 103.721 201.065 99.8794V79.3769C201.065 75.5354 202.912 73.6362 206.563 73.6362ZM206.992 101.088V78.2115C206.992 77.823 206.864 77.6504 206.563 77.6504C206.262 77.6504 206.133 77.823 206.133 78.2115V101.088C206.133 101.476 206.262 101.649 206.563 101.649C206.864 101.649 206.992 101.476 206.992 101.088Z" fill="#6EC2FF" stroke="black" stroke-miterlimit="10"/>
<path d="M224.045 105.447H218.933L218.418 93.7934H217.86V105.447H212.92V73.8521H218.891C220.48 73.8521 221.725 74.2405 222.542 75.0175C223.358 75.7944 223.744 76.9166 223.744 78.3842V88.4412C223.744 89.6929 223.444 90.6857 222.842 91.4194L224.045 105.447ZM217.86 89.9087H218.031C218.461 89.9087 218.676 89.5203 218.676 88.7002V79.1179C218.676 78.4705 218.461 78.1252 218.031 78.1252H217.86V89.9087Z" fill="#6EC2FF" stroke="black" stroke-miterlimit="10"/>
<path d="M233.581 73.8521V78.082H231.347V105.404H226.364V78.1252H224.088V73.8952L233.581 73.8521Z" fill="#6EC2FF" stroke="black" stroke-miterlimit="10"/>
<path d="M239.637 87.9664L239.68 84.3407L240.109 73.8521H245.393L241.914 98.3687V105.447H236.931V98.4118L233.409 73.8521H238.778L239.293 84.3407L239.336 87.9664H239.637Z" fill="#6EC2FF" stroke="black" stroke-miterlimit="10"/>
<path d="M263.777 105.447L263.648 98.5413H262.574L262.445 105.447H257.334L259.052 73.8521H267.213L268.888 105.447H263.777ZM262.703 94.484H263.562L263.304 82.4415L263.261 78.6863H262.961L262.918 82.4415L262.703 94.484Z" fill="#6EC2FF" stroke="black" stroke-miterlimit="10"/>
<path d="M275.117 73.8521C276.663 73.8521 277.908 74.2837 278.768 75.1038C279.67 75.9239 280.099 77.1756 280.099 78.859V100.57C280.099 102.167 279.67 103.376 278.768 104.196C277.866 105.016 276.663 105.447 275.117 105.447H269.275V73.8521H275.117ZM275.031 100.57V78.6863C275.031 78.2978 274.859 78.1252 274.558 78.1252H274.172V101.174H274.515C274.859 101.174 275.031 100.958 275.031 100.57Z" fill="#6EC2FF" stroke="black" stroke-miterlimit="10"/>
<path d="M291.525 85.2903H286.628V78.1252C286.628 77.7367 286.499 77.5641 286.241 77.5641C285.941 77.5641 285.812 77.7367 285.812 78.1252V85.0313C285.812 85.6787 286.027 86.1535 286.499 86.4557L288.647 87.1463C289.678 87.4916 290.451 88.0095 290.966 88.657C291.482 89.3044 291.739 90.2972 291.739 91.5921V100.613C291.739 102.21 291.267 103.462 290.279 104.325C289.334 105.188 287.96 105.663 286.241 105.663C282.633 105.663 280.829 104.196 280.872 101.304V92.4985H285.769V101.088C285.769 101.476 285.898 101.649 286.198 101.649C286.499 101.649 286.628 101.476 286.628 101.131V92.6712C286.628 92.0237 286.37 91.5489 285.812 91.2468L284.137 90.7288C282.891 90.4267 282.032 89.8656 281.474 89.1318C280.958 88.3548 280.658 87.2758 280.658 85.8514V78.4705C280.658 76.9166 281.13 75.7512 282.075 74.888C283.02 74.0247 284.394 73.6362 286.156 73.6362C287.831 73.6362 289.162 74.0247 290.064 74.7585C290.966 75.4922 291.439 76.5713 291.439 77.9957V85.2903H291.525Z" fill="#6EC2FF" stroke="black" stroke-miterlimit="10"/>
<path d="M297.925 73.6362C299.772 73.6362 301.146 74.111 302.048 75.0174C302.95 75.9239 303.423 77.3914 303.423 79.3769V99.8794C303.423 101.865 302.95 103.332 302.048 104.282C301.146 105.188 299.729 105.663 297.882 105.663C294.231 105.663 292.427 103.721 292.427 99.8794V79.3769C292.427 75.5354 294.274 73.6362 297.925 73.6362ZM298.354 101.088V78.2115C298.354 77.823 298.225 77.6504 297.925 77.6504C297.624 77.6504 297.495 77.823 297.495 78.2115V101.088C297.495 101.476 297.624 101.649 297.925 101.649C298.182 101.649 298.354 101.476 298.354 101.088Z" fill="#6EC2FF" stroke="black" stroke-miterlimit="10"/>
<path d="M108.157 89.0886L104.248 89.8224L106.997 92.7143L103.432 91.031L103.904 94.9588L102.014 91.4626L100.124 94.9588L100.64 91.031L97.0747 92.7143L99.8237 89.8224L95.9149 89.0886L99.8237 88.398L97.0747 85.5061L100.64 87.1894L100.124 83.2616L102.014 86.7578L103.904 83.2616L103.432 87.1894L106.997 85.5061L104.248 88.398L108.157 89.0886Z" fill="white"/>
<path d="M257.42 89.0886L253.511 89.8224L256.217 92.7143L252.652 91.031L253.167 94.9588L251.277 91.4626L249.387 94.9588L249.903 91.031L246.338 92.7143L249.044 89.8224L245.178 89.0886L249.044 88.398L246.338 85.5061L249.903 87.1894L249.387 83.2616L251.277 86.7578L253.167 83.2616L252.652 87.1894L256.217 85.5061L253.511 88.398L257.42 89.0886Z" fill="white"/>
</g>
<defs>
<clipPath id="clip0_106_1341">
<rect width="306" height="131" fill="white"/>
</clipPath>
</defs>
</svg>
