<svg xmlns="http://www.w3.org/2000/svg" viewBox="0 0 1444.53 74.4"><defs><style>.cls-1{fill:#fff;stroke:#000;}</style></defs><g id="Layer_2" data-name="Layer 2"><g id="Layer_1-2" data-name="Layer 1"><path d="M23.19,16.89l13.88-.11V73.27H16.2V38.08H8v-12a24.93,24.93,0,0,0,7.73-1.73,12.61,12.61,0,0,0,4.46-2.93A23.4,23.4,0,0,0,23.19,16.89Z"/><path d="M48.46,43.83a11.39,11.39,0,0,1-6.3-4.25,12.59,12.59,0,0,1-2.38-7.74V31q0-6.84,6.27-10.88t17-4q10.77,0,17,4T86.4,31v.84A12.37,12.37,0,0,1,84,39.59a11.82,11.82,0,0,1-6.32,4.3v.61q9.45,2.45,9.43,12.83v.73a13.57,13.57,0,0,1-6.53,12Q74,74.35,63.09,74.34T45.57,70.06a13.57,13.57,0,0,1-6.51-12v-.79q0-10.22,9.4-12.77ZM66.61,55V52.89a4.77,4.77,0,0,0-.9-3,3.56,3.56,0,0,0-5.2,0,4.67,4.67,0,0,0-.93,3v2a4.65,4.65,0,0,0,.93,3,3.55,3.55,0,0,0,5.2,0A4.7,4.7,0,0,0,66.61,55Zm-.24-18.61V35.21a4.46,4.46,0,0,0-.84-2.84,2.9,2.9,0,0,0-2.44-1.08,3,3,0,0,0-2.44,1.05,4.44,4.44,0,0,0-.84,2.87v1.13a4.41,4.41,0,0,0,.87,2.82,2.89,2.89,0,0,0,2.41,1.1C65.28,40.26,66.37,39,66.37,36.34Z"/><path d="M130.07,17.1q25.52,0,25.48,23.83v9q0,23.31-25.48,23.31H104.32V17.1Zm3.36,35.35V37.88a6.08,6.08,0,0,0-1.19-4,4.09,4.09,0,0,0-3.36-1.46h-3.23V57.94h3.29Q133.43,57.91,133.43,52.45Z"/><path d="M180.1,58h19.28V73.27H158.76V17.1h40.5V32.37H180.1v7h18.09V50.51H180.1Z"/><path d="M243,17.1q25.52,0,25.49,23.83v9q0,23.31-25.49,23.31H217.23V17.1Zm3.37,35.35V37.88a6.13,6.13,0,0,0-1.19-4,4.11,4.11,0,0,0-3.37-1.46h-3.22V57.94h3.28Q246.35,57.91,246.35,52.45Z"/><path d="M271.68,17.1H293V73.27H271.68Z"/><path d="M347.87,48.36v4.7q0,10.11-6.87,15.72T322.41,74.4q-12.84,0-19.52-6.49t-6.69-18.3v-9q0-11.7,6.72-18.1t19.49-6.4q11.7,0,18.58,5.65t6.88,15.69V42H326.33V36.9a5.79,5.79,0,0,0-1-3.6A3.39,3.39,0,0,0,322.47,32a3.64,3.64,0,0,0-2.94,1.34,5.41,5.41,0,0,0-1.1,3.54V53.7a5.29,5.29,0,0,0,1.1,3.51,3.64,3.64,0,0,0,2.94,1.31,3.37,3.37,0,0,0,2.81-1.33,5.67,5.67,0,0,0,1.05-3.6V48.36Z"/><path d="M350.87,17.1h21.34V73.27H350.87Z"/><path d="M397.57,58h19.27V73.27H376.23V17.1h40.5V32.37H397.57v7h18.08V50.51H397.57Z"/><path d="M456.11,52.8l1.07-9.26,4.27-26.44h29.87V73.27H470.56V56.49l1-17.3h-.84l-6.42,34.08H446.53l-5.92-34.08h-.85l.9,17.3V73.27H419.85V17.1h29.9L454,43.54l1.19,9.26Z"/><path d="M534.94,44.33q5.84.66,9,3.92t3.21,8.85v.78q0,7.14-4.76,11.27t-13.56,4.12H495.34V17.1h33.41q8.16,0,12.51,3.55t4.36,10.06v.58q0,10.83-10.68,12.31Zm-13.44-12h-4.71v7h4.76q3.41,0,3.4-3.39v-.18Q525,32.37,521.5,32.37Zm-.06,17.41h-4.65V58h4.59c2.9,0,4.34-1.38,4.33-4.12v-.24a3.66,3.66,0,0,0-1.12-2.84A4.52,4.52,0,0,0,521.44,49.78Z"/><path d="M600.56,73.27H579.25l-4.09-15.65h-5V73.27H548.83V17.1h29.43q9.81,0,15.1,4.72T598.64,36v.34q0,9.93-5.46,14.92ZM570.28,45h2.56a4.81,4.81,0,0,0,3.6-1.42,5.91,5.91,0,0,0,1.39-4.27V37.94a5.83,5.83,0,0,0-1.42-4.27,4.91,4.91,0,0,0-3.63-1.42h-2.5Z"/><path d="M623.25,58h19.27V73.27H601.91V17.1H642.4V32.37H623.25v7h18.08V50.51H623.25Z"/><path d="M692.53,38V53.64h-33.3V38Z"/><path d="M730.15,58.21h-4.6V73.27H710.82V15.48h19.33q7.15,0,11.14,4.24t4,11.71v9.91q0,7.47-4.11,12.17A13.86,13.86,0,0,1,730.15,58.21ZM727,45.85q3,0,3.08-4V31.67q0-3.92-3.08-3.92h-1.46v18.1Z"/><path d="M761.68,61h11.14V73.27H747V15.48h14.72Z"/><path d="M793.79,73.27l-.66-9.47L787,63.74l-.66,9.53H771.06l7.2-57.79h24l6.87,57.79Zm-5.85-21.18h4.39l-1.23-17-.53-6.78h-.87l-.54,6.78Z"/><path d="M825.66,61h13.83V73.27H808.61V61.83l13.14-34.08H808.9V15.48h30l-.06,11.32Z"/><path d="M861.68,73.27,861,63.8l-6.12-.06-.66,9.53H839l7.2-57.79h24l6.87,57.79Zm-5.86-21.18h4.39L859,35.1l-.54-6.78h-.86l-.54,6.78Z"/><path d="M906.33,15.48q7.77,0,12.11,4.09t4.35,12.3V57.23q0,8-4.38,12t-12.08,4H888.47V15.48Zm1.4,42.32V31c0-2.11-.87-3.18-2.62-3.2h-1.92V61H905C906.82,61,907.73,59.91,907.73,57.8Z"/><path d="M940.26,61h13.35V73.27H925.53V15.48h27.84V27.75H940.26V38h12.36V49.64H940.26Z"/><path d="M996.65,15.48V27.69h-8.4V73.27H973.53V27.75H965V15.48Z"/><path d="M1014.27,14.79q8.81,0,13.18,4.55t4.38,14.12V55.35q0,9.52-4.38,14.09T1014.27,74q-17.38,0-17.38-18.66V33.46Q996.89,14.79,1014.27,14.79Zm2.45,44.53V29.48a3.29,3.29,0,0,0-.64-2.12,2.12,2.12,0,0,0-1.69-.77,2.17,2.17,0,0,0-1.75.77,3.23,3.23,0,0,0-.64,2.12V59.32a3.19,3.19,0,0,0,.64,2.08,2.09,2.09,0,0,0,1.69.79C1015.92,62.19,1016.72,61.23,1016.72,59.32Z"/><path d="M1069.85,73.27h-15.2L1052.5,55h-3.2V73.27h-14.72V15.48h19q7.65,0,11.47,3.82T1068.89,30v8.19a15.16,15.16,0,0,1-3.31,10.15ZM1049.3,44h1.29q3.17,0,3.19-4.72V31.87c0-2.72-1.06-4.1-3.19-4.12h-1.29Z"/><path d="M1088,14.79q8.81,0,13.18,4.55t4.38,14.12V55.35q0,9.52-4.38,14.09T1088,74q-17.38,0-17.38-18.66V33.46Q1070.66,14.79,1088,14.79Zm2.45,44.53V29.48a3.29,3.29,0,0,0-.64-2.12,2.1,2.1,0,0,0-1.69-.77,2.17,2.17,0,0,0-1.75.77,3.23,3.23,0,0,0-.64,2.12V59.32a3.19,3.19,0,0,0,.64,2.08,2.09,2.09,0,0,0,1.69.79C1089.69,62.19,1090.49,61.23,1090.49,59.32Z"/><path d="M1141.68,34.5h-14.49V28.92c0-1.71-.77-2.57-2.33-2.57a2.06,2.06,0,0,0-1.62.64,2.42,2.42,0,0,0-.59,1.69v5a2.76,2.76,0,0,0,.53,1.83,3.93,3.93,0,0,0,1.68,1l6.9,1.59a16.21,16.21,0,0,1,8,4.31q2.79,3,2.79,9.1v6.66q0,7.46-4.59,11.66T1125.16,74q-8.45,0-12.75-3.46t-4.3-9.89V52.9h14.66v6.72a2.93,2.93,0,0,0,.62,1.92,2.13,2.13,0,0,0,1.77.77,2.21,2.21,0,0,0,1.69-.7,2.5,2.5,0,0,0,.64-1.75V53.65c0-1.52-.93-2.58-2.8-3.2l-5.47-1.16q-6.06-1.11-8.81-4.44t-2.75-9.75V29.72a14,14,0,0,1,4.44-10.85q4.43-4.08,12.88-4.08,7.95,0,12.32,3.52a11.85,11.85,0,0,1,4.38,9.77Z"/><path d="M1173.7,15.48q7.75,0,12.11,4.09t4.34,12.3V57.23q0,8-4.37,12t-12.08,4h-17.86V15.48Zm1.4,42.32V31c0-2.11-.88-3.18-2.63-3.2h-1.91V61h1.79C1174.18,61,1175.1,59.91,1175.1,57.8Z"/><path d="M1207.62,61H1221V73.27H1192.9V15.48h27.84V27.75h-13.12V38H1220V49.64h-12.37Z"/><path d="M1259.36,51.79l.56-9,2.45-27.32h21V73.27h-14.13l.06-17.06.75-19.59h-.81l-4,36.65H1252.4l-3.86-36.77h-.8l.8,19.65V73.27h-14.12V15.48h21.08L1258,42.8l.63,9Z"/><path d="M1301.5,61h13.35V73.27h-28.08V15.48h27.84V27.75H1301.5V38h12.36V49.64H1301.5Zm1.28-52.53H1310l-7.41,5.26h-4.09Z"/><path d="M1352.69,73.27h-15.2L1335.34,55h-3.2V73.27h-14.72V15.48h19q7.65,0,11.47,3.82T1351.73,30v8.19a15.16,15.16,0,0,1-3.31,10.15ZM1332.14,44h1.28q3.16,0,3.2-4.72V31.87c0-2.72-1.07-4.1-3.2-4.12h-1.28Z"/><path d="M1354.48,15.48h14.72V73.27h-14.72Z"/><path d="M1390.38,15.48q7.77,0,12.11,4.09t4.35,12.3V57.23q0,8-4.38,12t-12.08,4h-17.86V15.48Zm1.4,42.32V31c0-2.11-.87-3.18-2.62-3.2h-1.92V61h1.8C1390.87,61,1391.78,59.91,1391.78,57.8Z"/><path d="M1429.15,73.27l-.66-9.47-6.12-.06-.66,9.53h-15.29l7.2-57.79h24l6.87,57.79Zm-5.86-21.18h4.39l-1.22-17-.54-6.78h-.86l-.54,6.78Z"/><path class="cls-1" d="M15.65,9l13.88-.11V65.34H8.66V30.16H.5v-12a25,25,0,0,0,7.74-1.73,12.65,12.65,0,0,0,4.45-2.93A23.09,23.09,0,0,0,15.65,9Z"/><path class="cls-1" d="M40.92,35.9a11.33,11.33,0,0,1-6.29-4.25,12.53,12.53,0,0,1-2.38-7.74v-.84q0-6.84,6.27-10.88t17-4q10.75,0,17,4t6.27,10.88v.84a12.48,12.48,0,0,1-2.4,7.76A11.93,11.93,0,0,1,70.13,36v.61Q79.6,39,79.56,49.4v.73a13.57,13.57,0,0,1-6.53,12q-6.52,4.29-17.47,4.28T38,62.13a13.56,13.56,0,0,1-6.52-12v-.79q0-10.22,9.4-12.77ZM59.07,47V45a4.77,4.77,0,0,0-.9-3.05,3.56,3.56,0,0,0-5.2,0A4.67,4.67,0,0,0,52,45v2A4.65,4.65,0,0,0,53,50a3.55,3.55,0,0,0,5.2,0A4.7,4.7,0,0,0,59.07,47Zm-.23-18.61V27.28A4.47,4.47,0,0,0,58,24.44a2.89,2.89,0,0,0-2.43-1.08,2.94,2.94,0,0,0-2.44,1.05,4.44,4.44,0,0,0-.85,2.87v1.13a4.42,4.42,0,0,0,.88,2.82,2.88,2.88,0,0,0,2.41,1.1C57.74,32.33,58.84,31,58.84,28.41Z"/><path class="cls-1" d="M122.53,9.17Q148,9.17,148,33v9q0,23.31-25.49,23.31H96.78V9.17Zm3.37,35.35V30a6.13,6.13,0,0,0-1.19-4,4.12,4.12,0,0,0-3.37-1.45h-3.22V50h3.28Q125.9,50,125.9,44.52Z"/><path class="cls-1" d="M172.56,50.07h19.28V65.34H151.23V9.17h40.49V24.44H172.56v7h18.09V42.58H172.56Z"/><path class="cls-1" d="M235.44,9.17Q261,9.17,260.93,33v9q0,23.31-25.49,23.31H209.7V9.17Zm3.37,35.35V30a6.13,6.13,0,0,0-1.19-4,4.09,4.09,0,0,0-3.37-1.45H231V50h3.28Q238.81,50,238.81,44.52Z"/><path class="cls-1" d="M264.14,9.17h21.34V65.34H264.14Z"/><path class="cls-1" d="M340.33,40.43v4.7q0,10.11-6.87,15.72t-18.59,5.62Q302,66.47,295.35,60t-6.69-18.3v-9q0-11.7,6.72-18.1t19.49-6.4q11.7,0,18.58,5.65t6.88,15.69V34H318.79V29a5.73,5.73,0,0,0-1-3.6A3.39,3.39,0,0,0,314.93,24,3.6,3.6,0,0,0,312,25.37a5.36,5.36,0,0,0-1.11,3.54V45.77A5.28,5.28,0,0,0,312,49.29a3.63,3.63,0,0,0,2.93,1.3,3.37,3.37,0,0,0,2.81-1.33,5.67,5.67,0,0,0,1.05-3.6V40.43Z"/><path class="cls-1" d="M343.34,9.17h21.33V65.34H343.34Z"/><path class="cls-1" d="M390,50.07h19.28V65.34H368.69V9.17h40.5V24.44H390v7h18.09V42.58H390Z"/><path class="cls-1" d="M448.57,44.87l1.07-9.26,4.27-26.44h29.87V65.34H463V48.56l1-17.3h-.84l-6.41,34.08H439l-5.92-34.08h-.84l.9,17.3V65.34H412.31V9.17h29.9l4.21,26.44,1.19,9.26Z"/><path class="cls-1" d="M527.4,36.4q5.83.66,9,3.92t3.21,8.85V50q0,7.14-4.76,11.27c-3.18,2.74-7.69,4.12-13.56,4.12H487.8V9.17h33.42q8.14,0,12.51,3.55t4.35,10.06v.58q0,10.83-10.68,12.31ZM514,24.44h-4.7v7H514q3.39,0,3.39-3.39v-.18Q517.41,24.44,514,24.44Zm-.06,17.41h-4.64v8.22h4.58q4.36,0,4.33-4.12v-.24a3.67,3.67,0,0,0-1.12-2.84A4.52,4.52,0,0,0,513.9,41.85Z"/><path class="cls-1" d="M593,65.34H571.71l-4.09-15.65h-5V65.34H541.29V9.17h29.44q9.81,0,15.09,4.72t5.28,14.18v.34q0,9.93-5.45,14.92ZM562.74,37.09h2.56a4.81,4.81,0,0,0,3.6-1.42,5.87,5.87,0,0,0,1.39-4.27V30a5.79,5.79,0,0,0-1.42-4.27,4.91,4.91,0,0,0-3.63-1.42h-2.5Z"/><path class="cls-1" d="M615.71,50.07H635V65.34H594.37V9.17h40.5V24.44H615.71v7h18.08V42.58H615.71Z"/><path class="cls-1" d="M685,30.1V45.71h-33.3V30.1Z"/><path class="cls-1" d="M722.61,50.29H718V65.34H703.28V7.55h19.33q7.17,0,11.14,4.24t4,11.71v9.91q0,7.47-4.11,12.17A13.86,13.86,0,0,1,722.61,50.29Zm-3.14-12.37q3,0,3.08-4V23.74q0-3.91-3.08-3.92H718v18.1Z"/><path class="cls-1" d="M754.15,53h11.14V65.34H739.42V7.55h14.73Z"/><path class="cls-1" d="M786.25,65.34l-.65-9.47-6.13-.06-.65,9.53h-15.3l7.2-57.79h24l6.87,57.79ZM780.4,44.16h4.39l-1.23-17L783,20.39h-.87l-.54,6.78Z"/><path class="cls-1" d="M818.12,53H832V65.34H801.07V53.9l13.14-34.08H801.37V7.55h30l-.06,11.32Z"/><path class="cls-1" d="M854.14,65.34l-.66-9.47-6.12-.06-.66,9.53H831.41l7.2-57.79h24l6.87,57.79Zm-5.85-21.18h4.39l-1.23-17-.54-6.78h-.86l-.54,6.78Z"/><path class="cls-1" d="M898.79,7.55q7.77,0,12.11,4.09t4.35,12.3V49.3q0,8-4.38,12t-12.08,4.05H880.93V7.55Zm1.41,42.32V23c0-2.11-.88-3.18-2.63-3.2h-1.91V53h1.79C899.28,53,900.2,52,900.2,49.87Z"/><path class="cls-1" d="M932.72,53h13.35V65.34H918V7.55h27.83V19.82H932.72V30h12.36V41.71H932.72Z"/><path class="cls-1" d="M989.11,7.55V19.76h-8.39V65.34H966V19.82h-8.51V7.55Z"/><path class="cls-1" d="M1006.73,6.86q8.81,0,13.19,4.56t4.37,14.11V47.42q0,9.53-4.37,14.09t-13.19,4.57q-17.38,0-17.38-18.66V25.53Q989.35,6.86,1006.73,6.86Zm2.45,44.53V21.55a3.23,3.23,0,0,0-.64-2.12,2.1,2.1,0,0,0-1.69-.77,2.17,2.17,0,0,0-1.75.77,3.23,3.23,0,0,0-.64,2.12V51.39a3.19,3.19,0,0,0,.64,2.08,2.09,2.09,0,0,0,1.69.79C1008.38,54.26,1009.18,53.3,1009.18,51.39Z"/><path class="cls-1" d="M1062.31,65.34h-15.2L1045,47.06h-3.2V65.34H1027V7.55h19q7.65,0,11.47,3.82t3.83,10.72v8.19A15.16,15.16,0,0,1,1058,40.43ZM1041.76,36h1.29q3.17,0,3.19-4.72V23.94c0-2.72-1.06-4.1-3.19-4.12h-1.29Z"/><path class="cls-1" d="M1080.5,6.86q8.8,0,13.19,4.56t4.37,14.11V47.42q0,9.53-4.37,14.09t-13.19,4.57q-17.38,0-17.38-18.66V25.53Q1063.12,6.86,1080.5,6.86ZM1083,51.39V21.55a3.23,3.23,0,0,0-.64-2.12,2.1,2.1,0,0,0-1.69-.77,2.17,2.17,0,0,0-1.75.77,3.29,3.29,0,0,0-.64,2.12V51.39a3.25,3.25,0,0,0,.64,2.08,2.09,2.09,0,0,0,1.69.79C1082.15,54.26,1083,53.3,1083,51.39Z"/><path class="cls-1" d="M1134.14,26.57h-14.48V21c0-1.71-.78-2.57-2.33-2.57a2.08,2.08,0,0,0-1.63.64,2.41,2.41,0,0,0-.58,1.69v5a2.76,2.76,0,0,0,.52,1.83,3.91,3.91,0,0,0,1.69,1l6.9,1.59a16.22,16.22,0,0,1,8,4.31q2.81,3,2.8,9.1v6.66q0,7.46-4.6,11.66t-12.85,4.19q-8.44,0-12.75-3.46t-4.3-9.89V45h14.67v6.72a3,3,0,0,0,.61,1.93,2.16,2.16,0,0,0,1.77.76,2.21,2.21,0,0,0,1.69-.7,2.51,2.51,0,0,0,.65-1.75V45.72c0-1.52-.94-2.58-2.81-3.2l-5.47-1.16q-6.06-1.11-8.81-4.44t-2.75-9.75V21.79a14,14,0,0,1,4.44-10.85q4.44-4.08,12.89-4.08,7.93,0,12.32,3.52a11.87,11.87,0,0,1,4.37,9.77Z"/><path class="cls-1" d="M1166.16,7.55q7.75,0,12.11,4.09t4.34,12.3V49.3q0,8-4.37,12t-12.08,4.05H1148.3V7.55Zm1.4,42.32V23c0-2.11-.87-3.18-2.63-3.2H1163V53h1.79C1166.65,53,1167.56,52,1167.56,49.87Z"/><path class="cls-1" d="M1200.09,53h13.35V65.34h-28.08V7.55h27.84V19.82h-13.11V30h12.36V41.71h-12.36Z"/><path class="cls-1" d="M1251.82,43.86l.56-9,2.45-27.33h21V65.34h-14.13l.06-17.06.75-19.59h-.81l-4,36.65h-12.84L1241,28.57h-.81l.81,19.65V65.34h-14.13V7.55H1248l2.45,27.33.63,9Z"/><path class="cls-1" d="M1294,53h13.35V65.34h-28.08V7.55h27.84V19.82H1294V30h12.36V41.71H1294ZM1295.24.5h7.17L1295,5.76h-4.09Z"/><path class="cls-1" d="M1345.15,65.34H1330l-2.15-18.28h-3.2V65.34h-14.72V7.55h19q7.65,0,11.47,3.82t3.82,10.72v8.19a15.16,15.16,0,0,1-3.31,10.15ZM1324.6,36h1.29q3.16,0,3.19-4.72V23.94c0-2.72-1.06-4.1-3.19-4.12h-1.29Z"/><path class="cls-1" d="M1346.94,7.55h14.73V65.34h-14.73Z"/><path class="cls-1" d="M1382.84,7.55q7.77,0,12.11,4.09t4.35,12.3V49.3q0,8-4.38,12t-12.08,4.05H1365V7.55Zm1.41,42.32V23c0-2.11-.88-3.18-2.63-3.2h-1.91V53h1.79C1383.33,53,1384.25,52,1384.25,49.87Z"/><path class="cls-1" d="M1421.61,65.34l-.66-9.47-6.12-.06-.66,9.53h-15.29l7.2-57.79h24L1437,65.34Zm-5.85-21.18h4.39l-1.23-17-.54-6.78h-.86l-.54,6.78Z"/></g></g></svg>