<svg width="296" height="37" viewBox="0 0 296 37" fill="none" xmlns="http://www.w3.org/2000/svg">
<g clip-path="url(#clip0_106_1425)">
<path d="M11.1281 37H9.16195V34.8535V32.707V30.5604V28.4139V26.2674V24.1209V21.9743V19.8278V17.7034V15.5569H7.19578H5.22961H3.26344H1.31754V13.4103V11.2638H3.28371H5.24988H7.21605H9.18222H11.1484H13.1146H15.0807H17.0266H18.9928H20.959V13.4103V15.5569H18.9928H17.0266H15.0605H13.0943V17.7034V19.8499V21.9965V24.143V26.2895V28.436V30.5826V32.7291V34.8756V37.0222H11.1281V37Z" fill="black"/>
<path d="M38.6342 37H36.6681H34.7019H32.7357H30.7696H28.8034V34.8535H26.8372V32.707H24.871V30.5604V28.4139V26.2674V24.1209V21.9743V19.8278V17.7034V15.5569H26.8372V13.4103H28.8034V11.2638H30.7696H32.7357H34.7019H36.6681H38.6342H40.6004V13.4103H42.5666V15.5569H44.5328V17.7034V19.8499V21.9965V24.143V26.2895V28.436V30.5826V32.7291H42.5666V34.8756H40.6004V37.0222H38.6342V37ZM36.6681 32.707H38.6342V30.5604H40.6004V28.4139V26.2674V24.1209V21.9743V19.8278V17.7034H38.6342V15.5569H36.6681H34.7019H32.7357H30.7696V17.7034H28.8034V19.8499V21.9965V24.143V26.2895V28.436V30.5826H30.7696V32.7291H32.7357H34.7019H36.6681V32.707Z" fill="black"/>
<path d="M60.2419 37H58.2757H56.3095H54.3434H52.3772H50.411H48.4448V34.8535V32.707V30.5604V28.4139V26.2674V24.1209V21.9743V19.8278V17.7034V15.5569V13.4103V11.2638H50.411H52.3772H54.3434H56.3095H58.2757H60.2419H62.208V13.4103H64.1742V15.5569H66.1404V17.7034H68.1066V19.8499V21.9965V24.143V26.2895V28.436V30.5826H66.1404V32.7291H64.1742V34.8756H62.208V37.0222H60.2419V37ZM58.296 32.707H60.2621V30.5604H62.2283V28.4139H64.1945V26.2674V24.1209V21.9743V19.8278H62.2283V17.7034H60.2621V15.5569H58.296H56.3298H54.3636H52.3975V17.7034V19.8499V21.9965V24.143V26.2895V28.436V30.5826V32.7291H54.3636H56.3298H58.296V32.707Z" fill="black"/>
<path d="M85.7818 37H83.8157H81.8495H79.8833H77.9171H75.951V34.8535H73.9848V32.707H72.0186V30.5604V28.4139V26.2674V24.1209V21.9743V19.8278V17.7034V15.5569H73.9848V13.4103H75.951V11.2638H77.9171H79.8833H81.8495H83.8157H85.7818H87.748V13.4103H89.7142V15.5569H91.6803V17.7034V19.8499V21.9965V24.143V26.2895V28.436V30.5826V32.7291H89.7142V34.8756H87.748V37.0222H85.7818V37ZM83.8157 32.707H85.7818V30.5604H87.748V28.4139V26.2674V24.1209V21.9743V19.8278V17.7034H85.7818V15.5569H83.8157H81.8495H79.8833H77.9171V17.7034H75.951V19.8499V21.9965V24.143V26.2895V28.436V30.5826H77.9171V32.7291H79.8833H81.8495H83.8157V32.707Z" fill="black"/>
<path d="M109.356 37H107.389H105.423H103.457H101.491H99.5247V34.8535H97.5586V32.707H95.5924V30.5604V28.4139H97.5586H99.5247V30.5604H101.491V32.707H103.457H105.423H107.389H109.356V30.5604H111.322V28.4139H109.356V26.2674H107.389H105.423H103.457H101.491H99.5247V24.1209H97.5586V21.9743H95.5924V19.8278V17.7034V15.5569H97.5586V13.4103H99.5247V11.2638H101.491H103.457H105.423H107.389H109.356H111.322V13.4103H113.288V15.5569H115.254V17.7034V19.8499H113.288H111.322V17.7034H109.356V15.5569H107.389H105.423H103.457H101.491V17.7034H99.5247V19.8499H101.491V21.9965H103.457H105.423H107.389H109.356H111.322V24.143H113.288V26.2895H115.254V28.436V30.5826V32.7291H113.288V34.8756H111.322V37.0222H109.356V37Z" fill="black"/>
<path d="M146.693 37H144.726V34.8535V32.707V30.5604H142.76H140.794H138.828H136.862H134.896H132.929V32.707V34.8535V37H130.963H128.997V34.8535V32.707V30.5604H130.963V28.4139V26.2674V24.1209H132.929V21.9743V19.8278V17.7034H134.896V15.5569V13.4103H136.862V11.2638H138.828H140.794V13.4103H142.76V15.5569V17.7034H144.726V19.8499V21.9965V24.143H146.693V26.2895V28.436V30.5826H148.659V32.7291V34.8756V37.0222H146.693V37ZM140.794 26.2674H142.76V24.1209H140.794V21.9743V19.8278V17.7034H138.828H136.862V19.8499V21.9965V24.143H134.896V26.2895H136.862H138.828H140.794V26.2674Z" fill="black"/>
<path d="M180.097 37H178.131V34.8535V32.707V30.5604V28.4139V26.2674V24.1209V21.9743V19.8278H176.165V21.9743H174.199V24.1209V26.2674H172.233H170.266V24.1209V21.9743H168.3V19.8278H166.334V21.9743V24.1209V26.2674V28.4139V30.5604V32.707V34.8535V37H164.368H162.402V34.8535V32.707V30.5604V28.4139V26.2674V24.1209V21.9743V19.8278V17.7034V15.5569V13.4103V11.2638H164.368H166.334V13.4103H168.3V15.5569H170.266V17.7034H172.233H174.199V15.5569H176.165V13.4103H178.131V11.2638H180.097H182.063V13.4103V15.5569V17.7034V19.8499V21.9965V24.143V26.2895V28.436V30.5826V32.7291V34.8756V37.0222H180.097V37Z" fill="black"/>
<path d="M203.671 37H201.705H199.739H197.773H195.806H193.84H191.874H189.908H187.942H185.975V34.8535V32.707V30.5604V28.4139V26.2674V24.1209V21.9743V19.8278V17.7034V15.5569V13.4103V11.2638H187.942H189.908H191.874H193.84H195.806H197.773H199.739H201.705H203.671H205.637V13.4103V15.5569H203.671H201.705H199.739H197.773H195.806H193.84H191.874H189.908V17.7034V19.8499V21.9965H191.874H193.84H195.806H197.773H199.739H201.705V24.143V26.2895H199.739H197.773H195.806H193.84H191.874H189.908V28.436V30.5826V32.7291H191.874H193.84H195.806H197.773H199.739H201.705H203.671H205.637V34.8756V37.0222H203.671V37Z" fill="black"/>
<path d="M227.245 37H225.279V34.8535V32.707H223.312V30.5604H221.346V28.4139H219.38H217.414H215.448H213.482V30.5604V32.707V34.8535V37H211.515H209.549V34.8535V32.707V30.5604V28.4139V26.2674V24.1209V21.9743V19.8278V17.7034V15.5569V13.4103V11.2638H211.515H213.482H215.448H217.414H219.38H221.346H223.312H225.279V13.4103H227.245V15.5569H229.211V17.7034V19.8499V21.9965V24.143H227.245V26.2895H225.279V28.436H227.245V30.5826H229.211V32.7291V34.8756V37.0222H227.245V37ZM221.346 24.1209H223.312V21.9743H225.279V19.8278V17.7034H223.312V15.5569H221.346H219.38H217.414H215.448H213.482V17.7034V19.8499V21.9965V24.143H215.448H217.414H219.38H221.346V24.1209Z" fill="black"/>
<path d="M246.886 37H244.92H242.954H240.988H239.022H237.055V34.8535V32.707H239.022H240.988V30.5604V28.4139V26.2674V24.1209V21.9743V19.8278V17.7034V15.5569H239.022H237.055V13.4103V11.2638H239.022H240.988H242.954H244.92H246.886H248.852V13.4103V15.5569H246.886H244.92V17.7034V19.8499V21.9965V24.143V26.2895V28.436V30.5826V32.7291H246.886H248.852V34.8756V37.0222H246.886V37Z" fill="black"/>
<path d="M264.561 37H262.595H260.629H258.663H256.697H254.731H252.764V34.8535V32.707V30.5604V28.4139V26.2674V24.1209V21.9743V19.8278V17.7034V15.5569V13.4103V11.2638H254.731H256.697H258.663H260.629H262.595H264.561H266.528V13.4103H268.494V15.5569H270.46V17.7034H272.426V19.8499V21.9965V24.143V26.2895V28.436V30.5826H270.46V32.7291H268.494V34.8756H266.528V37.0222H264.561V37ZM262.595 32.707H264.561V30.5604H266.528V28.4139H268.494V26.2674V24.1209V21.9743V19.8278H266.528V17.7034H264.561V15.5569H262.595H260.629H258.663H256.697V17.7034V19.8499V21.9965V24.143V26.2895V28.436V30.5826V32.7291H258.663H260.629H262.595V32.707Z" fill="black"/>
<path d="M294.034 37H292.068V34.8535V32.707V30.5604H290.101H288.135H286.169H284.203H282.237H280.271V32.707V34.8535V37H278.304H276.338V34.8535V32.707V30.5604H278.304V28.4139V26.2674V24.1209H280.271V21.9743V19.8278V17.7034H282.237V15.5569V13.4103H284.203V11.2638H286.169H288.135V13.4103H290.101V15.5569V17.7034H292.068V19.8499V21.9965V24.143H294.034V26.2895V28.436V30.5826H296V32.7291V34.8756V37.0222H294.034V37ZM288.135 26.2674H290.101V24.1209H288.135V21.9743V19.8278V17.7034H286.169H284.203V19.8499V21.9965V24.143H282.237V26.2895H284.203H286.169H288.135V26.2674Z" fill="black"/>
<path d="M10.1957 34.6322H8.22954V32.4857V30.3392V28.1926V26.0461V23.8996V21.753V19.6065V17.46V15.3134V13.1669H6.26337H4.2972H2.33103H0.364857V11.0204V8.87384H2.33103H4.2972H6.26337H8.22954H10.1957H12.1619H14.1281H16.0942H18.0604H20.0266V11.0204V13.1669H18.0604H16.0942H14.1281H12.1619V15.3134V17.46V19.6065V21.753V23.8996V26.0461V28.1926V30.3392V32.4857V34.6322H10.1957Z" fill="#E1FF95"/>
<path d="M37.7018 34.6322H35.7357H33.7695H31.8033H29.8372H27.871V32.4857H25.9048V30.3392H23.9386V28.1926V26.0461V23.8996V21.753V19.6065V17.46V15.3134V13.1669H25.9048V11.0204H27.871V8.87384H29.8372H31.8033H33.7695H35.7357H37.7018H39.668V11.0204H41.6342V13.1669H43.6004V15.3134V17.46V19.6065V21.753V23.8996V26.0461V28.1926V30.3392H41.6342V32.4857H39.668V34.6322H37.7018ZM35.7357 30.3392H37.7018V28.1926H39.668V26.0461V23.8996V21.753V19.6065V17.46V15.3134H37.7018V13.1669H35.7357H33.7695H31.8033H29.8372V15.3134H27.871V17.46V19.6065V21.753V23.8996V26.0461V28.1926H29.8372V30.3392H31.8033H33.7695H35.7357Z" fill="#E1FF95"/>
<path d="M59.3095 34.6322H57.3433H55.3771H53.4109H51.4448H49.4786H47.5124V32.4857V30.3392V28.1926V26.0461V23.8996V21.753V19.6065V17.46V15.3134V13.1669V11.0204V8.87384H49.4786H51.4448H53.4109H55.3771H57.3433H59.3095H61.2756V11.0204H63.2418V13.1669H65.208V15.3134H67.1741V17.46V19.6065V21.753V23.8996V26.0461V28.1926H65.208V30.3392H63.2418V32.4857H61.2756V34.6322H59.3095ZM57.3433 30.3392H59.3095V28.1926H61.2756V26.0461H63.2418V23.8996V21.753V19.6065V17.46H61.2756V15.3134H59.3095V13.1669H57.3433H55.3771H53.4109H51.4448V15.3134V17.46V19.6065V21.753V23.8996V26.0461V28.1926V30.3392H53.4109H55.3771H57.3433Z" fill="#E1FF95"/>
<path d="M84.8494 34.6322H82.8832H80.9171H78.9509H76.9847H75.0186V32.4857H73.0524V30.3392H71.0862V28.1926V26.0461V23.8996V21.753V19.6065V17.46V15.3134V13.1669H73.0524V11.0204H75.0186V8.87384H76.9847H78.9509H80.9171H82.8832H84.8494H86.8156V11.0204H88.7817V13.1669H90.7479V15.3134V17.46V19.6065V21.753V23.8996V26.0461V28.1926V30.3392H88.7817V32.4857H86.8156V34.6322H84.8494ZM82.8832 30.3392H84.8494V28.1926H86.8156V26.0461V23.8996V21.753V19.6065V17.46V15.3134H84.8494V13.1669H82.8832H80.9171H78.9509H76.9847V15.3134H75.0186V17.46V19.6065V21.753V23.8996V26.0461V28.1926H76.9847V30.3392H78.9509H80.9171H82.8832Z" fill="#E1FF95"/>
<path d="M108.423 34.6322H106.457H104.491H102.525H100.559H98.5923V32.4857H96.6262V30.3392H94.66V28.1926V26.0461H96.6262H98.5923V28.1926H100.559V30.3392H102.525H104.491H106.457H108.423V28.1926H110.389V26.0461H108.423V23.8996H106.457H104.491H102.525H100.559H98.5923V21.753H96.6262V19.6065H94.66V17.46V15.3134V13.1669H96.6262V11.0204H98.5923V8.87384H100.559H102.525H104.491H106.457H108.423H110.389V11.0204H112.356V13.1669H114.322V15.3134V17.46H112.356H110.389V15.3134H108.423V13.1669H106.457H104.491H102.525H100.559V15.3134H98.5923V17.46H100.559V19.6065H102.525H104.491H106.457H108.423H110.389V21.753H112.356V23.8996H114.322V26.0461V28.1926V30.3392H112.356V32.4857H110.389V34.6322H108.423Z" fill="#E1FF95"/>
<path d="M145.76 34.6322H143.794V32.4857V30.3392V28.1926H141.828H139.862H137.896H135.929H133.963H131.997V30.3392V32.4857V34.6322H130.031H128.065V32.4857V30.3392V28.1926H130.031V26.0461V23.8996V21.753H131.997V19.6065V17.46V15.3134H133.963V13.1669V11.0204H135.929V8.87384H137.896H139.862V11.0204H141.828V13.1669V15.3134H143.794V17.46V19.6065V21.753H145.76V23.8996V26.0461V28.1926H147.726V30.3392V32.4857V34.6322H145.76ZM139.862 23.8996H141.828V21.753H139.862V19.6065V17.46V15.3134H137.896H135.929V17.46V19.6065V21.753H133.963V23.8996H135.929H137.896H139.862Z" fill="#E1FF95"/>
<path d="M179.145 34.6322H177.178V32.4857V30.3392V28.1926V26.0461V23.8996V21.753V19.6065V17.46H175.212V19.6065H173.246V21.753V23.8996H171.28H169.314V21.753V19.6065H167.348V17.46H165.402V19.6065V21.753V23.8996V26.0461V28.1926V30.3392V32.4857V34.6322H163.435H161.469V32.4857V30.3392V28.1926V26.0461V23.8996V21.753V19.6065V17.46V15.3134V13.1669V11.0204V8.87384H163.435H165.402V11.0204H167.368V13.1669H169.334V15.3134H171.3H173.266V13.1669H175.232V11.0204H177.199V8.87384H179.165H181.131V11.0204V13.1669V15.3134V17.46V19.6065V21.753V23.8996V26.0461V28.1926V30.3392V32.4857V34.6322H179.145Z" fill="#E1FF95"/>
<path d="M202.718 34.6322H200.752H198.786H196.82H194.854H192.887H190.942H188.975H187.009H185.043V32.4857V30.3392V28.1926V26.0461V23.8996V21.753V19.6065V17.46V15.3134V13.1669V11.0204V8.87384H187.009H188.975H190.942H192.908H194.874H196.84H198.806H200.772H202.739H204.705V11.0204V13.1669H202.739H200.772H198.806H196.82H194.854H192.887H190.942H188.975V15.3134V17.46V19.6065H190.942H192.908H194.874H196.84H198.806H200.772V21.753V23.8996H198.806H196.82H194.854H192.887H190.942H188.975V26.0461V28.1926V30.3392H190.942H192.908H194.874H196.84H198.806H200.772H202.739H204.705V32.4857V34.6322H202.718Z" fill="#E1FF95"/>
<path d="M226.292 34.6322H224.326V32.4857V30.3392H222.36V28.1926H220.394V26.0461H218.427H216.461H214.495H212.529V28.1926V30.3392V32.4857V34.6322H210.563H208.597V32.4857V30.3392V28.1926V26.0461V23.8996V21.753V19.6065V17.46V15.3134V13.1669V11.0204V8.87384H210.563H212.529H214.495H216.461H218.427H220.394H222.36H224.326V11.0204H226.292V13.1669H228.258V15.3134V17.46V19.6065V21.753H226.292V23.8996H224.326V26.0461H226.292V28.1926H228.258V30.3392V32.4857V34.6322H226.292ZM220.394 21.753H222.36V19.6065H224.326V17.46V15.3134H222.36V13.1669H220.394H218.427H216.461H214.495H212.529V15.3134V17.46V19.6065V21.753H214.495H216.461H218.427H220.394Z" fill="#E1FF95"/>
<path d="M245.934 34.6322H243.967H242.001H240.035H238.069H236.103V32.4857V30.3392H238.069H240.035V28.1926V26.0461V23.8996V21.753V19.6065V17.46V15.3134V13.1669H238.069H236.103V11.0204V8.87384H238.069H240.035H242.001H243.967H245.934H247.9V11.0204V13.1669H245.934H243.967V15.3134V17.46V19.6065V21.753V23.8996V26.0461V28.1926V30.3392H245.934H247.9V32.4857V34.6322H245.934Z" fill="#E1FF95"/>
<path d="M263.629 34.6322H261.663H259.697H257.731H255.764H253.798H251.832V32.4857V30.3392V28.1926V26.0461V23.8996V21.753V19.6065V17.46V15.3134V13.1669V11.0204V8.87384H253.798H255.764H257.731H259.697H261.663H263.629H265.595V11.0204H267.561V13.1669H269.528V15.3134H271.494V17.46V19.6065V21.753V23.8996V26.0461V28.1926H269.528V30.3392H267.561V32.4857H265.595V34.6322H263.629ZM261.663 30.3392H263.629V28.1926H265.595V26.0461H267.561V23.8996V21.753V19.6065V17.46H265.595V15.3134H263.629V13.1669H261.663H259.697H257.731H255.764V15.3134V17.46V19.6065V21.753V23.8996V26.0461V28.1926V30.3392H257.731H259.697H261.663Z" fill="#E1FF95"/>
<path d="M293.081 34.6322H291.115V32.4857V30.3392V28.1926H289.149H287.183H285.216H283.25H281.284H279.318V30.3392V32.4857V34.6322H277.352H275.386V32.4857V30.3392V28.1926H277.352V26.0461V23.8996V21.753H279.318V19.6065V17.46V15.3134H281.284V13.1669V11.0204H283.25V8.87384H285.216H287.183V11.0204H289.149V13.1669V15.3134H291.115V17.46V19.6065V21.753H293.081V23.8996V26.0461V28.1926H295.047V30.3392V32.4857V34.6322H293.081ZM287.203 23.8996H289.169V21.753H287.203V19.6065V17.46V15.3134H285.237H283.271V17.46V19.6065V21.753H281.304V23.8996H283.271H285.237H287.203Z" fill="#E1FF95"/>
<path d="M9.9322 34.6322H7.96603V32.4857V30.3392V28.1926V26.0461V23.8996V21.753V19.6065V17.46V15.3134V13.1669H5.99986H4.03369H2.06752H0.101349V11.0204V8.87384H2.06752H4.03369H5.99986H7.96603H9.9322H11.8984H13.8645H15.8104H17.7766H19.7428V11.0204V13.1669H17.7766H15.8104H13.8443H11.8781V15.3134V17.46V19.6065V21.753V23.8996V26.0461V28.1926V30.3392V32.4857V34.6322H9.9322V34.6322Z" stroke="black" stroke-miterlimit="10"/>
<path d="M37.4181 34.6322H35.4722H33.506H31.5398H29.5736H27.6075V32.4857H25.6413V30.3392H23.6751V28.1926V26.0461V23.8996V21.753V19.6065V17.46V15.3134V13.1669H25.6413V11.0204H27.6075V8.87384H29.5736H31.5398H33.506H35.4722H37.4383H39.4045V11.0204H41.3707V13.1669H43.3368V15.3134V17.46V19.6065V21.753V23.8996V26.0461V28.1926V30.3392H41.3504V32.4857H39.3842V34.6322H37.4181V34.6322ZM35.4722 30.3392H37.4383V28.1926H39.4045V26.0461V23.8996V21.753V19.6065V17.46V15.3134H37.4383V13.1669H35.4722H33.506H31.5398H29.5736V15.3134H27.6075V17.46V19.6065V21.753V23.8996V26.0461V28.1926H29.5736V30.3392H31.5398H33.506H35.4722Z" stroke="black" stroke-miterlimit="10"/>
<path d="M59.0459 34.6322H57.0798H55.1136H53.1474H51.1813H49.2151H47.2489V32.4857V30.3392V28.1926V26.0461V23.8996V21.753V19.6065V17.46V15.3134V13.1669V11.0204V8.87384H49.2151H51.1813H53.1474H55.1136H57.0798H59.0459H61.0121V11.0204H62.9783V13.1669H64.9445V15.3134H66.9106V17.46V19.6065V21.753V23.8996V26.0461V28.1926H64.9445V30.3392H62.9783V32.4857H61.0121V34.6322H59.0459V34.6322ZM57.0798 30.3392H59.0459V28.1926H61.0121V26.0461H62.9783V23.8996V21.753V19.6065V17.46H61.0121V15.3134H59.0459V13.1669H57.0798H55.1136H53.1474H51.1813V15.3134V17.46V19.6065V21.753V23.8996V26.0461V28.1926V30.3392H53.1474H55.1136H57.0798Z" stroke="black" stroke-miterlimit="10"/>
<path d="M84.5859 34.6322H82.6197H80.6536H78.6874H76.7212H74.755V32.4857H72.7889V30.3392H70.8227V28.1926V26.0461V23.8996V21.753V19.6065V17.46V15.3134V13.1669H72.7889V11.0204H74.755V8.87384H76.7212H78.6874H80.6536H82.6197H84.5859H86.5521V11.0204H88.5183V13.1669H90.4844V15.3134V17.46V19.6065V21.753V23.8996V26.0461V28.1926V30.3392H88.5183V32.4857H86.5521V34.6322H84.5859V34.6322ZM82.6197 30.3392H84.5859V28.1926H86.5521V26.0461V23.8996V21.753V19.6065V17.46V15.3134H84.5859V13.1669H82.6197H80.6536H78.6874H76.7212V15.3134H74.755V17.46V19.6065V21.753V23.8996V26.0461V28.1926H76.7212V30.3392H78.6874H80.6536H82.6197Z" stroke="black" stroke-miterlimit="10"/>
<path d="M108.16 34.6322H106.194H104.227H102.261H100.295H98.3288V32.4857H96.3627V30.3392H94.3965V28.1926V26.0461H96.3627H98.3288V28.1926H100.295V30.3392H102.261H104.227H106.194H108.16V28.1926H110.126V26.0461H108.16V23.8996H106.194H104.227H102.261H100.295H98.3288V21.753H96.3627V19.6065H94.3965V17.46V15.3134V13.1669H96.3627V11.0204H98.3288V8.87384H100.295H102.261H104.227H106.194H108.16H110.126V11.0204H112.092V13.1669H114.058V15.3134V17.46H112.092H110.126V15.3134H108.16V13.1669H106.194H104.227H102.261H100.295V15.3134H98.3288V17.46H100.295V19.6065H102.261H104.227H106.194H108.16H110.126V21.753H112.092V23.8996H114.058V26.0461V28.1926V30.3392H112.092V32.4857H110.126V34.6322H108.16V34.6322Z" stroke="black" stroke-miterlimit="10"/>
<path d="M145.476 34.6322H143.51V32.4857V30.3392V28.1926H141.544H139.578H137.612H135.646H133.679H131.713V30.3392V32.4857V34.6322H129.747H127.781V32.4857V30.3392V28.1926H129.747V26.0461V23.8996V21.753H131.713V19.6065V17.46V15.3134H133.679V13.1669V11.0204H135.646V8.87384H137.612H139.578V11.0204H141.544V13.1669V15.3134H143.51V17.46V19.6065V21.753H145.476V23.8996V26.0461V28.1926H147.443V30.3392V32.4857V34.6322H145.476V34.6322ZM139.578 23.8996H141.544V21.753H139.578V19.6065V17.46V15.3134H137.612H135.646V17.46V19.6065V21.753H133.679V23.8996H135.646H137.612H139.578Z" stroke="black" stroke-miterlimit="10"/>
<path d="M178.881 34.6322H176.915V32.4857V30.3392V28.1926V26.0461V23.8996V21.753V19.6065V17.46H174.949V19.6065H172.983V21.753V23.8996H171.016H169.05V21.753V19.6065H167.084V17.46H165.118V19.6065V21.753V23.8996V26.0461V28.1926V30.3392V32.4857V34.6322H163.152H161.186V32.4857V30.3392V28.1926V26.0461V23.8996V21.753V19.6065V17.46V15.3134V13.1669V11.0204V8.87384H163.152H165.118V11.0204H167.084V13.1669H169.05V15.3134H171.016H172.983V13.1669H174.949V11.0204H176.915V8.87384H178.881H180.847V11.0204V13.1669V15.3134V17.46V19.6065V21.753V23.8996V26.0461V28.1926V30.3392V32.4857V34.6322H178.881V34.6322Z" stroke="black" stroke-miterlimit="10"/>
<path d="M202.455 34.6322H200.489H198.522H196.556H194.59H192.624H190.658H188.692H186.725H184.759V32.4857V30.3392V28.1926V26.0461V23.8996V21.753V19.6065V17.46V15.3134V13.1669V11.0204V8.87384H186.725H188.692H190.658H192.624H194.59H196.556H198.522H200.489H202.455H204.421V11.0204V13.1669H202.455H200.489H198.522H196.556H194.59H192.624H190.658H188.692V15.3134V17.46V19.6065H190.658H192.624H194.59H196.556H198.522H200.489V21.753V23.8996H198.522H196.556H194.59H192.624H190.658H188.692V26.0461V28.1926V30.3392H190.658H192.624H194.59H196.556H198.522H200.489H202.455H204.421V32.4857V34.6322H202.455V34.6322Z" stroke="black" stroke-miterlimit="10"/>
<path d="M226.029 34.6322H224.062V32.4857V30.3392H222.096V28.1926H220.13V26.0461H218.164H216.198H214.232H212.265V28.1926V30.3392V32.4857V34.6322H210.299H208.333V32.4857V30.3392V28.1926V26.0461V23.8996V21.753V19.6065V17.46V15.3134V13.1669V11.0204V8.87384H210.299H212.265H214.232H216.198H218.164H220.13H222.096H224.062V11.0204H226.029V13.1669H227.995V15.3134V17.46V19.6065V21.753H226.029V23.8996H224.062V26.0461H226.029V28.1926H227.995V30.3392V32.4857V34.6322H226.029V34.6322ZM220.13 21.753H222.096V19.6065H224.062V17.46V15.3134H222.096V13.1669H220.13H218.164H216.198H214.232H212.265V15.3134V17.46V19.6065V21.753H214.232H216.198H218.164H220.13Z" stroke="black" stroke-miterlimit="10"/>
<path d="M245.67 34.6322H243.704H241.738H239.772H237.805H235.839V32.4857V30.3392H237.805H239.772V28.1926V26.0461V23.8996V21.753V19.6065V17.46V15.3134V13.1669H237.805H235.839V11.0204V8.87384H237.805H239.772H241.738H243.704H245.67H247.636V11.0204V13.1669H245.67H243.704V15.3134V17.46V19.6065V21.753V23.8996V26.0461V28.1926V30.3392H245.67H247.636V32.4857V34.6322H245.67V34.6322Z" stroke="black" stroke-miterlimit="10"/>
<path d="M263.345 34.6322H261.379H259.413H257.447H255.481H253.514H251.548V32.4857V30.3392V28.1926V26.0461V23.8996V21.753V19.6065V17.46V15.3134V13.1669V11.0204V8.87384H253.514H255.481H257.447H259.413H261.379H263.345H265.311V11.0204H267.278V13.1669H269.244V15.3134H271.21V17.46V19.6065V21.753V23.8996V26.0461V28.1926H269.244V30.3392H267.278V32.4857H265.311V34.6322H263.345V34.6322ZM261.379 30.3392H263.345V28.1926H265.311V26.0461H267.278V23.8996V21.753V19.6065V17.46H265.311V15.3134H263.345V13.1669H261.379H259.413H257.447H255.481V15.3134V17.46V19.6065V21.753V23.8996V26.0461V28.1926V30.3392H257.447H259.413H261.379Z" stroke="black" stroke-miterlimit="10"/>
<path d="M292.818 34.6322H290.851V32.4857V30.3392V28.1926H288.885H286.919H284.953H282.987H281.021H279.054V30.3392V32.4857V34.6322H277.088H275.122V32.4857V30.3392V28.1926H277.088V26.0461V23.8996V21.753H279.054V19.6065V17.46V15.3134H281.021V13.1669V11.0204H282.987V8.87384H284.953H286.919V11.0204H288.885V13.1669V15.3134H290.851V17.46V19.6065V21.753H292.818V23.8996V26.0461V28.1926H294.784V30.3392V32.4857V34.6322H292.818V34.6322ZM286.919 23.8996H288.885V21.753H286.919V19.6065V17.46V15.3134H284.953H282.987V17.46V19.6065V21.753H281.021V23.8996H282.987H284.953H286.919Z" stroke="black" stroke-miterlimit="10"/>
<path d="M200.833 3.7841V5.93063H198.867H196.901H194.935H192.969H191.002V3.7841V1.63757H192.969H194.935H196.901H198.867H200.833V3.7841Z" fill="black"/>
<path d="M199.11 2.25719V4.40372H197.144H195.178H193.212H191.246H189.279V2.25719V0.110657H191.246H193.212H195.178H197.144H199.11V2.25719Z" fill="#E1FF95"/>
<path d="M199.11 2.25719V4.40372H197.144H195.178H193.212H191.246H189.279V2.25719V0.110657H191.246H193.212H195.178H197.144H199.11V2.25719Z" stroke="black" stroke-miterlimit="10"/>
</g>
<defs>
<clipPath id="clip0_106_1425">
<rect width="296" height="37" fill="white"/>
</clipPath>
</defs>
</svg>
